<mxfile host="app.diagrams.net" modified="2023-08-25T13:57:23.058Z" agent="Mozilla/5.0 (Macintosh; Intel Mac OS X 10_15_7) AppleWebKit/537.36 (KHTML, like Gecko) Chrome/116.0.0.0 Safari/537.36" etag="4hmBfy9cCuB2fFat2nIl" version="21.6.9" type="device">
  <diagram id="JkxV-i3mtnUckYZq2Y_T" name="Page-1">
    <mxGraphModel dx="1094" dy="615" grid="1" gridSize="10" guides="1" tooltips="1" connect="1" arrows="1" fold="1" page="1" pageScale="1" pageWidth="850" pageHeight="1100" math="0" shadow="0">
      <root>
        <mxCell id="0" />
        <mxCell id="1" parent="0" />
        <mxCell id="jiW54n12ChW0trK6SN7j-2" value="" style="edgeStyle=orthogonalEdgeStyle;rounded=0;orthogonalLoop=1;jettySize=auto;html=1;exitX=0.5;exitY=1;exitDx=0;exitDy=0;" parent="1" source="Wc6u6XMsmDuUl1eyZBGq-3" target="iqMKVUkLd1Z533yNme46-21" edge="1">
          <mxGeometry relative="1" as="geometry" />
        </mxCell>
        <mxCell id="jiW54n12ChW0trK6SN7j-8" style="edgeStyle=orthogonalEdgeStyle;rounded=0;orthogonalLoop=1;jettySize=auto;html=1;startArrow=none;exitX=0;exitY=0.5;exitDx=0;exitDy=0;" parent="1" source="iqMKVUkLd1Z533yNme46-3" edge="1">
          <mxGeometry relative="1" as="geometry">
            <mxPoint x="290" y="270" as="targetPoint" />
            <Array as="points">
              <mxPoint x="110" y="520" />
              <mxPoint x="110" y="270" />
            </Array>
          </mxGeometry>
        </mxCell>
        <mxCell id="Wc6u6XMsmDuUl1eyZBGq-4" style="edgeStyle=orthogonalEdgeStyle;rounded=0;orthogonalLoop=1;jettySize=auto;html=1;" parent="1" source="iqMKVUkLd1Z533yNme46-3" target="Wc6u6XMsmDuUl1eyZBGq-3" edge="1">
          <mxGeometry relative="1" as="geometry" />
        </mxCell>
        <mxCell id="iqMKVUkLd1Z533yNme46-3" value="N = 0 ?" style="rhombus;whiteSpace=wrap;html=1;shadow=0;fontFamily=Helvetica;fontSize=12;align=center;strokeWidth=1;spacing=6;spacingTop=-4;" parent="1" vertex="1">
          <mxGeometry x="220" y="480" width="140" height="80" as="geometry" />
        </mxCell>
        <mxCell id="iqMKVUkLd1Z533yNme46-4" value="" style="edgeStyle=orthogonalEdgeStyle;rounded=0;orthogonalLoop=1;jettySize=auto;html=1;" parent="1" source="iqMKVUkLd1Z533yNme46-5" target="iqMKVUkLd1Z533yNme46-7" edge="1">
          <mxGeometry relative="1" as="geometry" />
        </mxCell>
        <mxCell id="iqMKVUkLd1Z533yNme46-5" value="" style="ellipse;whiteSpace=wrap;html=1;" parent="1" vertex="1">
          <mxGeometry x="250" y="70" width="80" height="40" as="geometry" />
        </mxCell>
        <mxCell id="jiW54n12ChW0trK6SN7j-3" value="" style="edgeStyle=orthogonalEdgeStyle;rounded=0;orthogonalLoop=1;jettySize=auto;html=1;exitX=0.5;exitY=1;exitDx=0;exitDy=0;entryX=0.5;entryY=0;entryDx=0;entryDy=0;" parent="1" source="DKqbNdHl-wFKwDMMuu7E-1" target="Wc6u6XMsmDuUl1eyZBGq-5" edge="1">
          <mxGeometry relative="1" as="geometry">
            <mxPoint x="290" y="290" as="targetPoint" />
            <mxPoint x="290" y="244.5" as="sourcePoint" />
            <Array as="points">
              <mxPoint x="290" y="240" />
            </Array>
          </mxGeometry>
        </mxCell>
        <mxCell id="Wc6u6XMsmDuUl1eyZBGq-2" value="" style="edgeStyle=orthogonalEdgeStyle;rounded=0;orthogonalLoop=1;jettySize=auto;html=1;" parent="1" source="iqMKVUkLd1Z533yNme46-7" edge="1">
          <mxGeometry relative="1" as="geometry">
            <mxPoint x="290" y="200" as="targetPoint" />
          </mxGeometry>
        </mxCell>
        <mxCell id="iqMKVUkLd1Z533yNme46-7" value="Demander le nombre &lt;br&gt;N" style="shape=parallelogram;perimeter=parallelogramPerimeter;whiteSpace=wrap;html=1;fixedSize=1;" parent="1" vertex="1">
          <mxGeometry x="205" y="140" width="170" height="40" as="geometry" />
        </mxCell>
        <mxCell id="iqMKVUkLd1Z533yNme46-21" value="" style="ellipse;whiteSpace=wrap;html=1;" parent="1" vertex="1">
          <mxGeometry x="250" y="660" width="80" height="40" as="geometry" />
        </mxCell>
        <mxCell id="iqMKVUkLd1Z533yNme46-34" style="edgeStyle=orthogonalEdgeStyle;rounded=0;orthogonalLoop=1;jettySize=auto;html=1;entryX=0.5;entryY=0;entryDx=0;entryDy=0;" parent="1" target="iqMKVUkLd1Z533yNme46-32" edge="1">
          <mxGeometry relative="1" as="geometry">
            <mxPoint x="290" y="339" as="sourcePoint" />
          </mxGeometry>
        </mxCell>
        <mxCell id="jiW54n12ChW0trK6SN7j-1" value="" style="edgeStyle=orthogonalEdgeStyle;rounded=0;orthogonalLoop=1;jettySize=auto;html=1;" parent="1" source="iqMKVUkLd1Z533yNme46-32" target="iqMKVUkLd1Z533yNme46-3" edge="1">
          <mxGeometry relative="1" as="geometry" />
        </mxCell>
        <mxCell id="iqMKVUkLd1Z533yNme46-32" value="N&amp;nbsp; &amp;lt;–&amp;nbsp; N – 1" style="rounded=0;whiteSpace=wrap;html=1;" parent="1" vertex="1">
          <mxGeometry x="205" y="389.5" width="170" height="44.5" as="geometry" />
        </mxCell>
        <mxCell id="jiW54n12ChW0trK6SN7j-4" value="Oui" style="text;html=1;strokeColor=none;fillColor=none;align=center;verticalAlign=middle;whiteSpace=wrap;rounded=0;" parent="1" vertex="1">
          <mxGeometry x="290" y="560" width="50" height="20" as="geometry" />
        </mxCell>
        <mxCell id="EwNSNxJzdv77iN5J0lQv-5" value="Non" style="text;html=1;strokeColor=none;fillColor=none;align=center;verticalAlign=middle;whiteSpace=wrap;rounded=0;" parent="1" vertex="1">
          <mxGeometry x="170" y="520" width="40" height="25" as="geometry" />
        </mxCell>
        <mxCell id="Wc6u6XMsmDuUl1eyZBGq-3" value="Afficher : &lt;br&gt;M" style="shape=parallelogram;perimeter=parallelogramPerimeter;whiteSpace=wrap;html=1;fixedSize=1;" parent="1" vertex="1">
          <mxGeometry x="205" y="590" width="170" height="45" as="geometry" />
        </mxCell>
        <mxCell id="Wc6u6XMsmDuUl1eyZBGq-5" value="M&amp;nbsp; &amp;lt;–&amp;nbsp; M –&amp;nbsp;1" style="rounded=0;whiteSpace=wrap;html=1;" parent="1" vertex="1">
          <mxGeometry x="205" y="300" width="170" height="44.5" as="geometry" />
        </mxCell>
        <mxCell id="DKqbNdHl-wFKwDMMuu7E-1" value="Demander le nombre &lt;br&gt;M" style="shape=parallelogram;perimeter=parallelogramPerimeter;whiteSpace=wrap;html=1;fixedSize=1;" parent="1" vertex="1">
          <mxGeometry x="200" y="200" width="170" height="40" as="geometry" />
        </mxCell>
      </root>
    </mxGraphModel>
  </diagram>
</mxfile>
